<svg xmlns="http://www.w3.org/2000/svg" viewBox="0 0 339.59 508.53"><defs><style>.cls-1{opacity:0.5;}.cls-2{fill:#fff;}</style></defs><title>lockup-dark</title><g id="Layer_2" data-name="Layer 2"><g id="Layer_1-2" data-name="Layer 1"><rect width="339.59" height="508.53"/><g class="cls-1"><path class="cls-2" d="M60.86,99.67a20.36,20.36,0,0,1,4.85,2l122,70.59,0,140.66a20,20,0,0,1-40,0l0-117.6-102-59A20,20,0,0,1,60.86,99.67Z"/><path class="cls-2" d="M284.84,99.64a20,20,0,0,1,4.85,36.62l-112,64.86a20,20,0,1,1-20.05-34.61l112-64.86A19.89,19.89,0,0,1,284.84,99.64Z"/></g><path class="cls-2" d="M172.86,35.09a20,20,0,0,1,14.8,19.32l0,117.6,102,59a20,20,0,1,1-20,34.62l-122-70.6,0-140.65a20,20,0,0,1,20-20A20.26,20.26,0,0,1,172.86,35.09Z"/><path class="cls-2" d="M117.22,196.33A20,20,0,0,1,122.07,233L65.74,265.71a20,20,0,1,1-20-34.61L102,198.34A19.89,19.89,0,0,1,117.22,196.33Z"/><path class="cls-2" d="M167.69,379.74H151.2a7.47,7.47,0,0,0-5.66,2.6,23.77,23.77,0,0,0-10.83-2.6h-24v76.43a7.5,7.5,0,1,0,15,0V394.74h9a9,9,0,0,1,9,9v52.44a7.5,7.5,0,1,0,15,0V403.73a23.76,23.76,0,0,0-1.75-9h10.75a9,9,0,0,1,9,9v52.44a7.5,7.5,0,1,0,15,0V403.73A24,24,0,0,0,167.69,379.74Z"/><path class="cls-2" d="M233.64,379.74h-24v76.43a7.5,7.5,0,1,0,15,0V394.74h9a9,9,0,0,1,9,9v52.44a7.5,7.5,0,1,0,15,0V403.73A24,24,0,0,0,233.64,379.74Z"/><path class="cls-2" d="M283.1,379.74a7.51,7.51,0,0,0-7.49,7.5v68.93a7.5,7.5,0,1,0,15,0V387.24A7.51,7.51,0,0,0,283.1,379.74Z"/><path class="cls-2" d="M73.59,379.74H63.93A19.19,19.19,0,0,0,44.77,398.9v45.61a19.19,19.19,0,0,0,19.16,19.16h9.66a19.18,19.18,0,0,0,19.15-19.16V398.9A19.18,19.18,0,0,0,73.59,379.74ZM59.77,398.9a4.16,4.16,0,0,1,4.16-4.16h9.66a4.16,4.16,0,0,1,4.16,4.16v45.61a4.16,4.16,0,0,1-4.16,4.16H63.93a4.16,4.16,0,0,1-4.16-4.16Z"/><path class="cls-2" d="M29.27,448.3a7.87,7.87,0,1,0,7.87,7.87A7.88,7.88,0,0,0,29.27,448.3Z"/></g></g></svg>