<svg xmlns="http://www.w3.org/2000/svg" viewBox="0 0 278.29 429.63"><defs><style>.cls-1{opacity:0.5;}</style></defs><title>lockup-light</title><g id="Layer_2" data-name="Layer 2"><g id="Layer_1-2" data-name="Layer 1"><g class="cls-1"><path d="M39.46,65.26a20.32,20.32,0,0,1,4.85,2l122,70.6,0,140.66a20,20,0,0,1-40,0l0-117.6-102-59A20,20,0,0,1,39.46,65.26Z"/><path d="M263.45,65.23a20,20,0,0,1,4.84,36.62l-112,64.86a20,20,0,1,1-20-34.61l112-64.86A19.91,19.91,0,0,1,263.45,65.23Z"/></g><path d="M151.46.68A20,20,0,0,1,166.27,20l0,117.59,102,59a20,20,0,1,1-20,34.62l-122-70.6,0-140.66a20,20,0,0,1,20-20A20.26,20.26,0,0,1,151.46.68Z"/><path d="M95.83,161.91a20,20,0,0,1,4.84,36.63L44.34,231.3a20,20,0,0,1-20.05-34.62l56.33-32.76A20,20,0,0,1,95.83,161.91Z"/><path d="M146.29,345.33H129.8a7.47,7.47,0,0,0-5.66,2.6,23.74,23.74,0,0,0-10.83-2.6h-24v76.43a7.5,7.5,0,0,0,15,0V360.32h9a9,9,0,0,1,9,9v52.44a7.5,7.5,0,0,0,15,0V369.32a23.86,23.86,0,0,0-1.76-9h10.75a9,9,0,0,1,9,9v52.44a7.5,7.5,0,0,0,15,0V369.32A24,24,0,0,0,146.29,345.33Z"/><path d="M212.24,345.33h-24v76.43a7.5,7.5,0,0,0,15,0V360.32h9a9,9,0,0,1,9,9v52.44a7.5,7.5,0,0,0,15,0V369.32A24,24,0,0,0,212.24,345.33Z"/><path d="M261.71,345.33a7.51,7.51,0,0,0-7.5,7.5v68.93a7.5,7.5,0,0,0,15,0V352.83A7.51,7.51,0,0,0,261.71,345.33Z"/><path d="M52.19,345.33H42.53a19.17,19.17,0,0,0-19.15,19.16V410.1a19.17,19.17,0,0,0,19.15,19.15h9.66A19.18,19.18,0,0,0,71.35,410.1V364.49A19.18,19.18,0,0,0,52.19,345.33ZM38.37,364.49a4.17,4.17,0,0,1,4.16-4.17h9.66a4.17,4.17,0,0,1,4.16,4.17V410.1a4.16,4.16,0,0,1-4.16,4.16H42.53a4.17,4.17,0,0,1-4.16-4.16Z"/><path d="M7.87,413.88a7.88,7.88,0,1,0,7.87,7.88A7.89,7.89,0,0,0,7.87,413.88Z"/></g></g></svg>