<svg xmlns="http://www.w3.org/2000/svg" viewBox="0 0 264.01 298.53"><defs><style>.cls-1{opacity:0.5;}</style></defs><title>logo</title><g id="Layer_2" data-name="Layer 2"><g id="Layer_1-2" data-name="Layer 1"><g class="cls-1"><path d="M25.18,65.26a20.25,20.25,0,0,1,4.84,2l122,70.6,0,140.66a20,20,0,0,1-40,0l0-117.6-102-59a20,20,0,0,1,15.2-36.63Z"/><path d="M249.16,65.23A20,20,0,0,1,254,101.85L142,166.71a20,20,0,1,1-20-34.61L234,67.24A19.92,19.92,0,0,1,249.16,65.23Z"/></g><path d="M137.17.68A20,20,0,0,1,152,20l0,117.59,102,59a20,20,0,1,1-20,34.62l-122-70.6L112,20A20,20,0,0,1,137.17.68Z"/><path d="M81.54,161.91a20,20,0,0,1,4.84,36.63L30.05,231.3a20,20,0,0,1-20-34.62l56.33-32.76A20,20,0,0,1,81.54,161.91Z"/></g></g></svg>